<svg width="70" height="70" viewBox="0 0 70 70" fill="none" xmlns="http://www.w3.org/2000/svg">
<circle cx="35" cy="35" r="35" fill="#33D69F" fill-opacity="0.07"/>
<path d="M26 39L31 34" stroke="#21B8C7" stroke-width="2" stroke-linecap="round" stroke-linejoin="round"/>
<path d="M32 34C32.5523 34 33 33.5523 33 33C33 32.4477 32.5523 32 32 32C31.4477 32 31 32.4477 31 33C31 33.5523 31.4477 34 32 34Z" stroke="#21B8C7" stroke-width="2" stroke-linecap="round" stroke-linejoin="round"/>
<path d="M37 39C37.5523 39 38 38.5523 38 38C38 37.4477 37.5523 37 37 37C36.4477 37 36 37.4477 36 38C36 38.5523 36.4477 39 37 39Z" stroke="#21B8C7" stroke-width="2" stroke-linecap="round" stroke-linejoin="round"/>
<path d="M38 37L44 31M33 34L36 37L33 34Z" stroke="#21B8C7" stroke-width="2" stroke-linecap="round" stroke-linejoin="round"/>
</svg>
