<svg width="70" height="70" viewBox="0 0 70 70" fill="none" xmlns="http://www.w3.org/2000/svg">
<circle cx="35" cy="35" r="35" fill="#FFB800" fill-opacity="0.07"/>
<path d="M30 44H40M29 25H41V34C41 37.3137 38.3137 40 35 40C31.6863 40 29 37.3137 29 34V25Z" stroke="#FFB800" stroke-width="2" stroke-linecap="round" stroke-linejoin="round"/>
<path d="M35 40V44" stroke="#FFB800" stroke-width="2" stroke-linecap="round" stroke-linejoin="round"/>
<path d="M29 28V34H28C26.3431 34 25 32.6569 25 31C25 29.3431 26.3431 28 28 28H29ZM41 34V28H42C43.6569 28 45 29.3431 45 31C45 32.6569 43.6569 34 42 34H41Z" stroke="#FFB800" stroke-width="2" stroke-linecap="round" stroke-linejoin="round"/>
</svg>
